<?xml version="1.0" encoding="utf-8"?>
<!-- Generator: Adobe Illustrator 16.0.0, SVG Export Plug-In . SVG Version: 6.00 Build 0)  -->
<!DOCTYPE svg PUBLIC "-//W3C//DTD SVG 1.1//EN" "http://www.w3.org/Graphics/SVG/1.1/DTD/svg11.dtd">
<svg version="1.1" id="Layer_1" xmlns="http://www.w3.org/2000/svg" xmlns:xlink="http://www.w3.org/1999/xlink" x="0px" y="0px"
	 width="855.18px" height="1000px" viewBox="0 0 855.18 1000" enable-background="new 0 0 855.18 1000" xml:space="preserve">
<g>
	<path fill="#5C2B85" d="M588.469,969.39h1.823c2.045,0,3.793-0.78,3.793-2.695c0-1.395-1.004-2.716-3.793-2.716
		c-0.855,0-1.414,0.019-1.823,0.112V969.39z M588.469,978.094h-2.528V962.38c1.338-0.167,2.565-0.354,4.464-0.354
		c2.38,0,3.941,0.502,4.872,1.191c0.929,0.669,1.413,1.729,1.413,3.254c0,2.065-1.376,3.273-3.051,3.775v0.148
		c1.376,0.241,2.307,1.524,2.604,3.793c0.409,2.456,0.782,3.386,1.041,3.906h-2.639c-0.372-0.521-0.744-1.953-1.042-4.017
		c-0.409-2.008-1.413-2.752-3.423-2.752h-1.711V978.094z M591.073,957.99c-6.212,0-11.232,5.319-11.232,11.884
		c0,6.695,5.021,11.977,11.306,11.977c6.212,0.037,11.271-5.281,11.271-11.901c0-6.64-5.059-11.959-11.271-11.959H591.073z
		 M591.146,955.853c7.663,0,13.8,6.248,13.8,14.021c0,7.941-6.137,14.134-13.873,14.134c-7.698,0-13.947-6.192-13.947-14.134
		c0-7.773,6.249-14.021,13.947-14.021H591.146z"/>
	<polygon fill="#5C2B85" points="104.215,847.435 393.392,1000 58.245,502.385 	"/>
	<polygon fill="#5C2B85" points="464.468,997.285 753.644,844.775 799.613,499.707 	"/>
	<path fill="#5C2B85" d="M428.911,381.126l-28.936-107.729h57.908L428.911,381.126z M464.616,191.246h-74.052L278.8,6.741
		l71.373,418.831l76.729,91.587h1.378l76.728-91.587L576.382,6.741L464.616,191.246z"/>
	<path fill="#5C2B85" d="M324.25,421.853l0.26-0.186l-0.335-0.14L324.25,421.853z M530.671,421.667l0.262,0.186l0.073-0.325
		L530.671,421.667z M304.203,331.288h0.186l-0.224-0.074L304.203,331.288z M550.829,331.288h0.188l0.036-0.093L550.829,331.288z
		 M151.71,465.936l0.968-2.668l244.174,93.392l-49.431,114.033L151.71,465.936z M458.368,556.659l244.172-93.392l0.931,2.668
		L507.724,670.692L458.368,556.659z M760.896,156.221l-185.854,67.301l-23.989,107.674l180.238-65.479v17.108l-184.849,67.654
		l0.297-0.037l-15.733,71.085l200.285-74.554v17.1L526.32,440.84h0.26l-98.747,102.337h-0.409L328.603,440.84h0.334L123.89,364.073
		v-17.1l200.285,74.554l-15.732-71.085l0.298,0.037L123.89,282.825v-17.108l180.275,65.497l-24.027-107.692L94.285,156.221L0,0
		l58.468,448.111l369.104,551.182l369.179-551.182L855.18,0L760.896,156.221z"/>
</g>
</svg>
